#N struct tick float time float price float volume;
#N canvas 18 106 1186 615 10;
#X floatatom 99 -171 5 0 0 0 - - -;
#X floatatom 71 -54 5 0 0 0 - - -;
#X floatatom 123 -83 5 0 0 0 - - -;
#X obj 119 -114 min 999999;
#X obj 74 -114 max 0;
#X obj 98 -235 inlet;
#X obj 241 -103 s close;
#X obj 71 -26 s high;
#X obj 122 -48 s low;
#X obj 9 -149 + 1;
#X obj -27 -182 bng 15 250 50 0 empty empty empty 17 7 0 10 -262144
-1 -1;
#X obj -38 -160 f;
#X obj -46 -133 sel 1;
#X obj -39 -51 s open;
#X msg 162 -208 0;
#X obj -43 -107 bng 15 250 50 0 empty empty empty 17 7 0 10 -262144
-1 -1;
#X msg 25 -115 \$1;
#X obj -38 -82 f;
#X obj -151 -17 s ticks_count;
#X obj 57 -225 r price;
#X obj 312 -65 struct tick float time float price float volume;
#X floatatom 588 111 0 0 0 0 - - -;
#X floatatom 524 110 0 0 0 0 - - -;
#X obj 457 35 pointer;
#X msg 487 9 next;
#X floatatom 437 112 0 0 0 0 - - -;
#X obj 534 148 s price;
#X obj 596 150 s volume;
#X obj 462 152 s time;
#X obj 457 87 get tick time price volume;
#X msg 307 36 \; pd-data read ticks.txt;
#N canvas 0 22 450 300 data 1;
#X scalar tick 1.34521e+12 60120 1 \;;
#X scalar tick 1.34558e+12 59510 1 \;;
#X scalar tick 1.34581e+12 58700 10 \;;
#X scalar tick 1.34581e+12 58700 10 \;;
#X scalar tick 1.34581e+12 59150 10 \;;
#X scalar tick 1.34607e+12 59450 8 \;;
#X scalar tick 1.34607e+12 59500 5 \;;
#X scalar tick 1.34607e+12 59460 5 \;;
#X scalar tick 1.34607e+12 59300 5 \;;
#X scalar tick 1.34607e+12 59300 5 \;;
#X scalar tick 1.34616e+12 59155 10 \;;
#X scalar tick 1.34616e+12 59000 1 \;;
#X scalar tick 1.34616e+12 59000 1 \;;
#X scalar tick 1.34616e+12 59050 1 \;;
#X scalar tick 1.34616e+12 59050 6 \;;
#X scalar tick 1.34616e+12 59000 1 \;;
#X scalar tick 1.34634e+12 58165 1 \;;
#X scalar tick 1.34635e+12 58000 1 \;;
#X scalar tick 1.34635e+12 58000 1 \;;
#X scalar tick 1.34635e+12 58050 1 \;;
#X scalar tick 1.34635e+12 58050 1 \;;
#X scalar tick 1.34642e+12 58420 1 \;;
#X scalar tick 1.34642e+12 58415 1 \;;
#X scalar tick 1.34642e+12 58685 1 \;;
#X scalar tick 1.34642e+12 58885 1 \;;
#X scalar tick 1.34643e+12 58000 2 \;;
#X scalar tick 1.34644e+12 57700 1 \;;
#X scalar tick 1.34644e+12 57915 1 \;;
#X scalar tick 1.34644e+12 57985 1 \;;
#X scalar tick 1.34644e+12 58000 1 \;;
#X scalar tick 1.34644e+12 57705 1 \;;
#X scalar tick 1.34644e+12 58100 2 \;;
#X scalar tick 1.3467e+12 58100 100 \;;
#X scalar tick 1.3467e+12 58150 1 \;;
#X scalar tick 1.34677e+12 57525 5 \;;
#X scalar tick 1.34677e+12 57750 5 \;;
#X scalar tick 1.34677e+12 57210 5 \;;
#X scalar tick 1.34679e+12 57215 1 \;;
#X scalar tick 1.34679e+12 57160 5 \;;
#X scalar tick 1.34685e+12 57415 1 \;;
#X scalar tick 1.34685e+12 57150 5 \;;
#X scalar tick 1.34685e+12 57215 1 \;;
#X scalar tick 1.34685e+12 57150 1 \;;
#X scalar tick 1.34686e+12 57485 1 \;;
#X scalar tick 1.34687e+12 57450 1 \;;
#X scalar tick 1.34687e+12 57550 1 \;;
#X scalar tick 1.34687e+12 57685 1 \;;
#X scalar tick 1.34687e+12 57150 1 \;;
#X scalar tick 1.34693e+12 58035 1 \;;
#X scalar tick 1.34694e+12 57715 100 \;;
#X scalar tick 1.34694e+12 57985 1 \;;
#X scalar tick 1.34694e+12 58450 100 \;;
#X scalar tick 1.34694e+12 58590 1 \;;
#X scalar tick 1.34728e+12 60155 1 \;;
#X scalar tick 1.34729e+12 60085 1 \;;
#X scalar tick 1.3473e+12 59515 100 \;;
#X scalar tick 1.34731e+12 59415 1 \;;
#X scalar tick 1.34731e+12 59350 1 \;;
#X scalar tick 1.34731e+12 59600 1 \;;
#X scalar tick 1.34737e+12 59710 1 \;;
#X scalar tick 1.34737e+12 59740 1 \;;
#X scalar tick 1.34738e+12 59995 1 \;;
#X scalar tick 1.34739e+12 59730 20 \;;
#X scalar tick 1.34739e+12 60400 1 \;;
#X scalar tick 1.34739e+12 60395 1 \;;
#X scalar tick 1.34745e+12 60745 5 \;;
#X scalar tick 1.34745e+12 60745 3 \;;
#X scalar tick 1.34745e+12 60745 2 \;;
#X scalar tick 1.34745e+12 60780 10 \;;
#X scalar tick 1.34746e+12 60225 1 \;;
#X scalar tick 1.34746e+12 60875 1 \;;
#X scalar tick 1.34746e+12 60875 5 \;;
#X scalar tick 1.34746e+12 60750 5 \;;
#X scalar tick 1.34746e+12 60215 1 \;;
#X scalar tick 1.34746e+12 60680 13 \;;
#X scalar tick 1.34746e+12 60685 1 \;;
#X scalar tick 1.34746e+12 60685 6 \;;
#X scalar tick 1.34748e+12 60415 1 \;;
#X scalar tick 1.34748e+12 60785 1 \;;
#X scalar tick 1.34754e+12 60800 1 \;;
#X scalar tick 1.34754e+12 60705 1 \;;
#X scalar tick 1.34754e+12 60450 1 \;;
#X scalar tick 1.34755e+12 60785 1 \;;
#X scalar tick 1.34755e+12 60985 1 \;;
#X scalar tick 1.34756e+12 61400 5 \;;
#X scalar tick 1.34756e+12 61900 5 \;;
#X scalar tick 1.34756e+12 62250 2 \;;
#X scalar tick 1.34756e+12 62250 1 \;;
#X scalar tick 1.34757e+12 62710 2 \;;
#X scalar tick 1.34757e+12 62900 1 \;;
#X scalar tick 1.34763e+12 63685 1 \;;
#X scalar tick 1.34763e+12 63300 5 \;;
#X scalar tick 1.34763e+12 63215 1 \;;
#X scalar tick 1.34763e+12 63000 1 \;;
#X scalar tick 1.34764e+12 63150 1 \;;
#X scalar tick 1.34764e+12 63215 1 \;;
#X scalar tick 1.34764e+12 63115 1 \;;
#X scalar tick 1.34765e+12 63115 1 \;;
#X scalar tick 1.34765e+12 62800 1 \;;
#X scalar tick 1.34765e+12 63300 1 \;;
#X scalar tick 1.34765e+12 62985 1 \;;
#X scalar tick 1.34765e+12 63095 2 \;;
#X scalar tick 1.34789e+12 63070 1 \;;
#X scalar tick 1.34789e+12 63000 1 \;;
#X scalar tick 1.3479e+12 63015 1 \;;
#X scalar tick 1.3479e+12 62985 1 \;;
#X scalar tick 1.34791e+12 62515 1 \;;
#X scalar tick 1.34791e+12 62500 1 \;;
#X scalar tick 1.34791e+12 62515 1 \;;
#X scalar tick 1.34791e+12 62685 1 \;;
#X scalar tick 1.34791e+12 62700 1 \;;
#X scalar tick 1.34797e+12 62460 1 \;;
#X scalar tick 1.34797e+12 62685 1 \;;
#X scalar tick 1.34798e+12 62500 1 \;;
#X scalar tick 1.34798e+12 62450 1 \;;
#X scalar tick 1.34798e+12 62785 100 \;;
#X restore 316 80 pd data;
#X msg 457 -14 traverse pd-data \, next;
#X msg 310 -10 \; pd-data clear;
#X obj 208 -256 bng 15 250 50 0 empty empty empty 17 7 0 10 -262144
-1 -1;
#X obj 620 14 bng 15 250 50 0 empty empty empty 17 7 0 10 -262144 -1
-1;
#X floatatom 6 -50 5 0 0 0 - - -;
#X obj 598 -243 r close;
#X obj 905 -301 r low;
#X obj 541 29 metro 1000;
#X text 371 -34 comment;
#X obj 959 -311 r close;
#X obj 835 -188 *~;
#X floatatom 832 -278 0 0 0 0 - - -;
#X floatatom 744 -223 0 0 0 0 - - -;
#X obj 745 -168 +~;
#N canvas 0 22 1245 279 (subpatch) 1;
#X array fm-output 441 float 0;
#X coords 0 1.02 440 -1.02 200 130 1;
#X restore 743 40 graph;
#X msg 820 -128 bang;
#X text 862 -128 <-- click to graph;
#X obj 636 -23 tabwrite~ fm-output;
#X floatatom 875 -242 0 0 0 0 - - -;
#X text 741 -263 frequency;
#X obj 744 -124 osc~;
#X text 896 -206 index;
#X text 898 -225 modulation;
#X obj 835 -248 osc~;
#X text 747 172 --- 0.01 seconds ----;
#X obj 743 -86 output~;
#X obj 833 -313 r volume;
#X obj 557 -207 /;
#X msg 619 -58 bang;
#X obj 1003 -291 r close;
#X floatatom 994 -187 5 0 0 0 - - -;
#X obj 949 -281 r high;
#X floatatom 557 61 5 0 0 0 - - -;
#X obj 962 -255 -;
#X obj 918 -275 -;
#X msg 200 -207 1e+07;
#X obj -43 -19 f;
#X obj 1 8 r time;
#X obj -45 35 s starttime;
#X obj 544 -233 r open;
#X obj 46 110 * 60000;
#X floatatom 46 81 5 0 0 0 - - -;
#X connect 0 0 4 0;
#X connect 0 0 3 0;
#X connect 0 0 6 0;
#X connect 0 0 10 0;
#X connect 0 0 16 0;
#X connect 1 0 4 1;
#X connect 2 0 3 1;
#X connect 2 0 8 0;
#X connect 3 0 2 0;
#X connect 4 0 1 0;
#X connect 4 0 7 0;
#X connect 5 0 0 0;
#X connect 9 0 11 1;
#X connect 10 0 11 0;
#X connect 11 0 9 0;
#X connect 11 0 12 0;
#X connect 12 0 15 0;
#X connect 12 0 18 0;
#X connect 14 0 0 0;
#X connect 14 0 1 0;
#X connect 14 0 11 1;
#X connect 15 0 17 0;
#X connect 15 0 68 0;
#X connect 16 0 17 1;
#X connect 17 0 13 0;
#X connect 17 0 36 0;
#X connect 19 0 0 0;
#X connect 21 0 27 0;
#X connect 22 0 26 0;
#X connect 23 0 29 0;
#X connect 23 1 32 0;
#X connect 23 1 34 0;
#X connect 24 0 23 0;
#X connect 25 0 28 0;
#X connect 29 0 25 0;
#X connect 29 1 22 0;
#X connect 29 2 21 0;
#X connect 32 0 23 0;
#X connect 34 0 14 0;
#X connect 34 0 67 0;
#X connect 35 0 39 0;
#X connect 35 0 49 0;
#X connect 37 0 59 1;
#X connect 38 0 66 0;
#X connect 39 0 24 0;
#X connect 39 0 60 0;
#X connect 41 0 66 1;
#X connect 42 0 45 1;
#X connect 43 0 55 0;
#X connect 44 0 45 0;
#X connect 45 0 52 0;
#X connect 47 0 49 0;
#X connect 50 0 42 1;
#X connect 52 0 49 0;
#X connect 52 0 57 0;
#X connect 52 0 57 1;
#X connect 55 0 42 0;
#X connect 58 0 43 0;
#X connect 59 0 44 0;
#X connect 60 0 49 0;
#X connect 61 0 65 1;
#X connect 62 0 42 1;
#X connect 63 0 65 0;
#X connect 64 0 39 0;
#X connect 65 0 62 0;
#X connect 66 0 50 0;
#X connect 67 0 2 0;
#X connect 68 0 70 0;
#X connect 69 0 68 1;
#X connect 71 0 59 0;
#X connect 73 0 72 0;
