#N struct tick float time float price float volume;
#N canvas 11 22 1238 715 10;
#X floatatom 99 -171 5 0 0 0 - - -;
#X floatatom 71 -54 5 0 0 0 - - -;
#X floatatom 123 -83 5 0 0 0 - - -;
#X obj 119 -114 min 999999;
#X obj 74 -114 max 0;
#X obj 98 -235 inlet;
#X obj 241 -103 s close;
#X obj 71 -26 s high;
#X obj 122 -48 s low;
#X obj 9 -149 + 1;
#X obj -27 -182 bng 15 250 50 0 empty empty empty 17 7 0 10 -262144
-1 -1;
#X obj -38 -160 f;
#X obj -46 -133 sel 1;
#X obj -39 -51 s open;
#X msg 162 -208 0;
#X obj -43 -107 bng 15 250 50 0 empty empty empty 17 7 0 10 -262144
-1 -1;
#X msg 25 -115 \$1;
#X obj -38 -82 f;
#X obj -163 -82 s ticks_count;
#X obj 57 -225 r price;
#X obj 312 -65 struct tick float time float price float volume;
#X floatatom 588 111 0 0 0 0 - - -;
#X floatatom 524 110 0 0 0 0 - - -;
#X obj 457 35 pointer;
#X msg 487 9 next;
#X floatatom 434 114 0 0 0 0 - - -;
#X obj 534 148 s price;
#X obj 596 150 s volume;
#X obj 462 152 s time;
#X obj 457 87 get tick time price volume;
#X msg 307 36 \; pd-data read ticks.txt;
#N canvas 0 22 450 300 data 1;
#X scalar tick 5.21459e+09 60120 1 \;;
#X scalar tick 5.57527e+09 59510 1 \;;
#X scalar tick 5.81344e+09 58700 10 \;;
#X scalar tick 5.81344e+09 58700 10 \;;
#X scalar tick 5.81476e+09 59150 10 \;;
#X scalar tick 6.06935e+09 59450 8 \;;
#X scalar tick 6.06999e+09 59500 5 \;;
#X scalar tick 6.07001e+09 59460 5 \;;
#X scalar tick 6.07043e+09 59300 5 \;;
#X scalar tick 6.07109e+09 59300 5 \;;
#X scalar tick 6.1567e+09 59155 10 \;;
#X scalar tick 6.15729e+09 59000 1 \;;
#X scalar tick 6.15733e+09 59000 1 \;;
#X scalar tick 6.15763e+09 59050 1 \;;
#X scalar tick 6.15784e+09 59050 6 \;;
#X scalar tick 6.15784e+09 59000 1 \;;
#X scalar tick 6.33837e+09 58165 1 \;;
#X scalar tick 6.34717e+09 58000 1 \;;
#X scalar tick 6.34914e+09 58000 1 \;;
#X scalar tick 6.34953e+09 58050 1 \;;
#X scalar tick 6.34971e+09 58050 1 \;;
#X scalar tick 6.41852e+09 58420 1 \;;
#X scalar tick 6.41886e+09 58415 1 \;;
#X scalar tick 6.41919e+09 58685 1 \;;
#X scalar tick 6.41922e+09 58885 1 \;;
#X scalar tick 6.42897e+09 58000 2 \;;
#X scalar tick 6.43902e+09 57700 1 \;;
#X scalar tick 6.43983e+09 57915 1 \;;
#X scalar tick 6.44069e+09 57985 1 \;;
#X scalar tick 6.44351e+09 58000 1 \;;
#X scalar tick 6.44351e+09 57705 1 \;;
#X scalar tick 6.44388e+09 58100 2 \;;
#X scalar tick 6.69779e+09 58100 100 \;;
#X scalar tick 6.69823e+09 58150 1 \;;
#X scalar tick 6.76662e+09 57525 5 \;;
#X scalar tick 6.76696e+09 57750 5 \;;
#X scalar tick 6.76777e+09 57210 5 \;;
#X scalar tick 6.78778e+09 57215 1 \;;
#X scalar tick 6.78814e+09 57160 5 \;;
#X scalar tick 6.84838e+09 57415 1 \;;
#X scalar tick 6.84913e+09 57150 5 \;;
#X scalar tick 6.85243e+09 57215 1 \;;
#X scalar tick 6.85245e+09 57150 1 \;;
#X scalar tick 6.85525e+09 57485 1 \;;
#X scalar tick 6.86575e+09 57450 1 \;;
#X scalar tick 6.87217e+09 57550 1 \;;
#X scalar tick 6.87354e+09 57685 1 \;;
#X scalar tick 6.87477e+09 57150 1 \;;
#X scalar tick 6.93362e+09 58035 1 \;;
#X scalar tick 6.93605e+09 57715 100 \;;
#X scalar tick 6.93692e+09 57985 1 \;;
#X scalar tick 6.93845e+09 58450 100 \;;
#X scalar tick 6.94011e+09 58590 1 \;;
#X scalar tick 7.2823e+09 60155 1 \;;
#X scalar tick 7.28674e+09 60085 1 \;;
#X scalar tick 7.30381e+09 59515 100 \;;
#X scalar tick 7.30525e+09 59415 1 \;;
#X scalar tick 7.30822e+09 59350 1 \;;
#X scalar tick 7.30846e+09 59600 1 \;;
#X scalar tick 7.37147e+09 59710 1 \;;
#X scalar tick 7.37152e+09 59740 1 \;;
#X scalar tick 7.37681e+09 59995 1 \;;
#X scalar tick 7.38591e+09 59730 20 \;;
#X scalar tick 7.38904e+09 60400 1 \;;
#X scalar tick 7.38904e+09 60395 1 \;;
#X scalar tick 7.45393e+09 60745 5 \;;
#X scalar tick 7.45393e+09 60745 3 \;;
#X scalar tick 7.45393e+09 60745 2 \;;
#X scalar tick 7.45398e+09 60780 10 \;;
#X scalar tick 7.45592e+09 60225 1 \;;
#X scalar tick 7.45674e+09 60875 1 \;;
#X scalar tick 7.45726e+09 60875 5 \;;
#X scalar tick 7.45766e+09 60750 5 \;;
#X scalar tick 7.46091e+09 60215 1 \;;
#X scalar tick 7.46356e+09 60680 13 \;;
#X scalar tick 7.46356e+09 60685 1 \;;
#X scalar tick 7.46356e+09 60685 6 \;;
#X scalar tick 7.47652e+09 60415 1 \;;
#X scalar tick 7.47976e+09 60785 1 \;;
#X scalar tick 7.53856e+09 60800 1 \;;
#X scalar tick 7.53949e+09 60705 1 \;;
#X scalar tick 7.5441e+09 60450 1 \;;
#X scalar tick 7.54572e+09 60785 1 \;;
#X scalar tick 7.54856e+09 60985 1 \;;
#X scalar tick 7.55623e+09 61400 5 \;;
#X scalar tick 7.55672e+09 61900 5 \;;
#X scalar tick 7.56121e+09 62250 2 \;;
#X scalar tick 7.5614e+09 62250 1 \;;
#X scalar tick 7.56619e+09 62710 2 \;;
#X scalar tick 7.56817e+09 62900 1 \;;
#X scalar tick 7.62986e+09 63685 1 \;;
#X scalar tick 7.63344e+09 63300 5 \;;
#X scalar tick 7.63348e+09 63215 1 \;;
#X scalar tick 7.63385e+09 63000 1 \;;
#X scalar tick 7.63528e+09 63150 1 \;;
#X scalar tick 7.63792e+09 63215 1 \;;
#X scalar tick 7.64353e+09 63115 1 \;;
#X scalar tick 7.64531e+09 63115 1 \;;
#X scalar tick 7.64533e+09 62800 1 \;;
#X scalar tick 7.64586e+09 63300 1 \;;
#X scalar tick 7.6524e+09 62985 1 \;;
#X scalar tick 7.65444e+09 63095 2 \;;
#X scalar tick 7.88845e+09 63070 1 \;;
#X scalar tick 7.89196e+09 63000 1 \;;
#X scalar tick 7.90488e+09 63015 1 \;;
#X scalar tick 7.90489e+09 62985 1 \;;
#X scalar tick 7.90954e+09 62515 1 \;;
#X scalar tick 7.90954e+09 62500 1 \;;
#X scalar tick 7.91035e+09 62515 1 \;;
#X scalar tick 7.91192e+09 62685 1 \;;
#X scalar tick 7.91214e+09 62700 1 \;;
#X scalar tick 7.97092e+09 62460 1 \;;
#X scalar tick 7.97221e+09 62685 1 \;;
#X scalar tick 7.97508e+09 62500 1 \;;
#X scalar tick 7.97511e+09 62450 1 \;;
#X scalar tick 7.98116e+09 62785 100 \;;
#X restore 316 80 pd data;
#X msg 457 -14 traverse pd-data \, next;
#X msg 310 -10 \; pd-data clear;
#X obj 208 -256 bng 15 250 50 0 empty empty empty 17 7 0 10 -262144
-1 -1;
#X obj 620 14 bng 15 250 50 0 empty empty empty 17 7 0 10 -262144 -1
-1;
#X floatatom 6 -50 5 0 0 0 - - -;
#X obj 598 -243 r close;
#X obj 905 -301 r low;
#X obj 541 29 metro 1000;
#X obj 959 -311 r close;
#X obj 835 -188 *~;
#X floatatom 829 -298 0 0 0 0 - - -;
#X floatatom 744 -223 0 0 0 0 - - -;
#X obj 745 -168 +~;
#X msg 820 -128 bang;
#X text 862 -128 <-- click to graph;
#X obj 636 -23 tabwrite~ fm-output;
#X floatatom 875 -242 0 0 0 0 - - -;
#X text 741 -263 frequency;
#X obj 744 -124 osc~;
#X text 896 -206 index;
#X text 898 -225 modulation;
#X obj 835 -248 osc~;
#X obj 746 -86 output~;
#X obj 825 -325 r volume;
#X obj 557 -207 /;
#X msg 619 -58 bang;
#X obj 1003 -291 r close;
#X floatatom 994 -187 5 0 0 0 - - -;
#X obj 949 -281 r high;
#X obj 962 -255 -;
#X obj 918 -275 -;
#X msg 200 -207 1e+07;
#X obj 544 -233 r open;
#X obj 649 256 * 60000;
#X floatatom 649 210 5 0 0 0 - - -;
#X obj 839 -273 tgl 15 0 empty empty empty 17 7 0 10 -262144 -1 -1
1 1;
#X obj 625 297 >;
#X floatatom 629 331 5 0 0 0 - - -;
#X text 690 209 timeframe;
#X text 371 -34 comment;
#X obj 431 178 + 1;
#X obj 408 142 bng 15 250 50 0 empty empty empty 17 7 0 10 -262144
-1 -1;
#X obj 396 176 f;
#X obj 388 203 sel 1;
#X obj 391 229 bng 15 250 50 0 empty empty empty 17 7 0 10 -262144
-1 -1;
#X msg 459 221 \$1;
#X obj 396 254 f;
#X obj 395 285 s opentime;
#X floatatom 561 189 0 0 0 0 - - -;
#X obj 269 288 s bars_count;
#X floatatom 329 313 5 0 0 0 - - -;
#X obj 364 259 + 1;
#X obj 329 257 f;
#X floatatom 513 267 0 0 0 0 - - -;
#X obj 596 265 -;
#X floatatom 555 347 0 0 0 0 - - -;
#X obj 500 300 / 2e+06;
#X obj 499 330 + 750;
#X connect 0 0 4 0;
#X connect 0 0 3 0;
#X connect 0 0 6 0;
#X connect 0 0 10 0;
#X connect 0 0 16 0;
#X connect 0 0 57 0;
#X connect 1 0 4 1;
#X connect 2 0 3 1;
#X connect 2 0 8 0;
#X connect 3 0 2 0;
#X connect 4 0 1 0;
#X connect 4 0 7 0;
#X connect 5 0 0 0;
#X connect 9 0 11 1;
#X connect 10 0 11 0;
#X connect 11 0 9 0;
#X connect 11 0 12 0;
#X connect 12 0 15 0;
#X connect 12 0 18 0;
#X connect 14 0 0 0;
#X connect 14 0 1 0;
#X connect 14 0 11 1;
#X connect 14 0 74 1;
#X connect 15 0 17 0;
#X connect 16 0 17 1;
#X connect 17 0 13 0;
#X connect 17 0 36 0;
#X connect 19 0 0 0;
#X connect 21 0 27 0;
#X connect 22 0 26 0;
#X connect 23 0 29 0;
#X connect 23 1 32 0;
#X connect 23 1 34 0;
#X connect 24 0 23 0;
#X connect 25 0 28 0;
#X connect 25 0 73 0;
#X connect 25 0 77 0;
#X connect 25 0 86 0;
#X connect 29 0 25 0;
#X connect 29 1 22 0;
#X connect 29 2 21 0;
#X connect 32 0 23 0;
#X connect 34 0 14 0;
#X connect 34 0 63 0;
#X connect 35 0 39 0;
#X connect 35 0 47 0;
#X connect 37 0 56 1;
#X connect 38 0 62 0;
#X connect 39 0 24 0;
#X connect 39 0 57 0;
#X connect 40 0 62 1;
#X connect 41 0 44 1;
#X connect 42 0 53 0;
#X connect 42 0 67 0;
#X connect 44 0 50 0;
#X connect 45 0 47 0;
#X connect 48 0 41 1;
#X connect 50 0 47 0;
#X connect 50 0 54 0;
#X connect 50 0 54 1;
#X connect 53 0 41 0;
#X connect 55 0 42 0;
#X connect 56 0 43 0;
#X connect 57 0 47 0;
#X connect 58 0 61 1;
#X connect 59 0 41 1;
#X connect 60 0 61 0;
#X connect 61 0 59 0;
#X connect 62 0 48 0;
#X connect 63 0 2 0;
#X connect 64 0 56 0;
#X connect 65 0 68 1;
#X connect 65 0 86 1;
#X connect 66 0 65 0;
#X connect 67 0 53 0;
#X connect 68 0 69 0;
#X connect 72 0 74 1;
#X connect 73 0 74 0;
#X connect 74 0 72 0;
#X connect 74 0 75 0;
#X connect 75 0 76 0;
#X connect 76 0 78 0;
#X connect 76 0 84 0;
#X connect 77 0 78 1;
#X connect 78 0 79 0;
#X connect 78 0 80 0;
#X connect 80 0 86 1;
#X connect 83 0 84 1;
#X connect 84 0 83 0;
#X connect 84 0 81 0;
#X connect 84 0 82 0;
#X connect 85 0 88 0;
#X connect 86 0 68 0;
#X connect 86 0 85 0;
#X connect 88 0 89 0;
#X connect 89 0 87 0;
