#N struct ask float time float price float volume;
#N struct bid float time float price float volume;
#N canvas 11 22 1238 715 10;
#X floatatom 99 -171 5 0 0 0 - - -;
#X floatatom 71 -54 5 0 0 0 - - -;
#X floatatom 123 -83 5 0 0 0 - - -;
#X obj 119 -114 min 999999;
#X obj 74 -114 max 0;
#X obj 98 -235 inlet;
#X obj 241 -103 s close;
#X obj 71 -26 s high;
#X obj 122 -48 s low;
#X obj 9 -149 + 1;
#X obj -27 -182 bng 15 250 50 0 empty empty empty 17 7 0 10 -262144
-1 -1;
#X obj -38 -160 f;
#X obj -46 -133 sel 1;
#X obj -39 -51 s open;
#X msg 162 -208 0;
#X obj -43 -107 bng 15 250 50 0 empty empty empty 17 7 0 10 -262144
-1 -1;
#X msg 25 -115 \$1;
#X obj -38 -82 f;
#X obj -163 -82 s ticks_count;
#X obj 57 -225 r price;
#X floatatom 588 111 0 0 0 0 - - -;
#X floatatom 524 110 0 0 0 0 - - -;
#X obj 457 35 pointer;
#X msg 487 9 next;
#X floatatom 434 114 0 0 0 0 - - -;
#X obj 534 148 s price;
#X obj 596 150 s volume;
#X obj 462 152 s time;
#N canvas 0 22 450 300 data 1;
#X scalar ask 4.66763e+10 39.95 400 \;;
#X scalar ask 4.66763e+10 39.95 400 \;;
#X scalar bid 4.66763e+10 39.1 100 \;;
#X scalar bid 4.66763e+10 39.1 100 \;;
#X scalar ask 4.66763e+10 39.85 200 \;;
#X scalar ask 4.66763e+10 39.85 200 \;;
#X scalar bid 4.66763e+10 39.1 200 \;;
#X scalar bid 4.66763e+10 39.1 600 \;;
#X scalar ask 4.66764e+10 39.1 200 \;;
#X scalar bid 4.66772e+10 39.1 100 \;;
#X scalar ask 4.66772e+10 39.6 4700 \;;
#X scalar bid 4.66772e+10 39.1 600 \;;
#X scalar ask 4.66772e+10 39.6 4700 \;;
#X restore 837 217 pd data;
#X msg 457 -14 traverse pd-data \, next;
#X msg 831 127 \; pd-data clear;
#X obj 208 -256 bng 15 250 50 0 empty empty empty 17 7 0 10 -262144
-1 -1;
#X obj 620 14 bng 15 250 50 0 empty empty empty 17 7 0 10 -262144 -1
-1;
#X floatatom 6 -50 5 0 0 0 - - -;
#X obj 598 -243 r close;
#X obj 905 -301 r low;
#X obj 541 29 metro 1000;
#X obj 959 -311 r close;
#X obj 835 -188 *~;
#X floatatom 829 -298 0 0 0 0 - - -;
#X floatatom 744 -223 0 0 0 0 - - -;
#X obj 745 -168 +~;
#X msg 820 -128 bang;
#X text 862 -128 <-- click to graph;
#X obj 636 -23 tabwrite~ fm-output;
#X floatatom 878 -252 0 0 0 0 - - -;
#X text 741 -263 frequency;
#X obj 744 -124 osc~;
#X text 896 -206 index;
#X text 898 -225 modulation;
#X obj 835 -248 osc~;
#X obj 748 -86 output~;
#X obj 825 -325 r volume;
#X obj 557 -207 /;
#X msg 619 -58 bang;
#X obj 1003 -291 r close;
#X floatatom 994 -187 5 0 0 0 - - -;
#X obj 949 -281 r high;
#X obj 962 -255 -;
#X obj 918 -275 -;
#X msg 200 -207 1e+07;
#X obj 544 -233 r open;
#X obj 649 256 * 60000;
#X floatatom 649 210 5 0 0 0 - - -;
#X obj 839 -273 tgl 15 0 empty empty empty 17 7 0 10 -262144 -1 -1
400 400;
#X obj 625 297 >;
#X floatatom 629 331 5 0 0 0 - - -;
#X text 690 209 timeframe;
#X text 371 -34 comment;
#X obj 431 178 + 1;
#X obj 408 142 bng 15 250 50 0 empty empty empty 17 7 0 10 -262144
-1 -1;
#X obj 396 176 f;
#X obj 388 203 sel 1;
#X obj 391 229 bng 15 250 50 0 empty empty empty 17 7 0 10 -262144
-1 -1;
#X msg 459 221 \$1;
#X obj 396 254 f;
#X obj 395 285 s opentime;
#X floatatom 561 189 0 0 0 0 - - -;
#X obj 269 288 s bars_count;
#X floatatom 329 313 5 0 0 0 - - -;
#X obj 364 259 + 1;
#X obj 329 257 f;
#X floatatom 513 267 0 0 0 0 - - -;
#X obj 596 265 -;
#X floatatom 555 347 0 0 0 0 - - -;
#X obj 500 300 / 2e+06;
#X obj 499 330 + 750;
#X obj 781 267 struct tick float time float price float volume;
#X obj 782 300 struct bid float time float price float volume;
#X obj 775 329 struct ask float time float price float volume;
#X msg 859 172 \; pd-data read tots3.txt;
#X obj 877 -211 * 100;
#X obj 751 -282 / 100;
#X obj 447 70 get tick time price volume;
#X obj 664 42 get ask time price volume;
#X obj 676 155 get bid time price volume;
#X floatatom 754 183 5 0 0 0 - - -;
#X floatatom 802 185 5 0 0 0 - - -;
#X floatatom 672 187 0 0 0 0 - - -;
#X floatatom 738 72 5 0 0 0 - - -;
#X floatatom 786 74 5 0 0 0 - - -;
#X floatatom 656 76 0 0 0 0 - - -;
#X connect 0 0 4 0;
#X connect 0 0 3 0;
#X connect 0 0 6 0;
#X connect 0 0 10 0;
#X connect 0 0 16 0;
#X connect 0 0 54 0;
#X connect 1 0 4 1;
#X connect 2 0 3 1;
#X connect 2 0 8 0;
#X connect 3 0 2 0;
#X connect 4 0 1 0;
#X connect 4 0 7 0;
#X connect 5 0 0 0;
#X connect 9 0 11 1;
#X connect 10 0 11 0;
#X connect 11 0 9 0;
#X connect 11 0 12 0;
#X connect 12 0 15 0;
#X connect 12 0 18 0;
#X connect 14 0 0 0;
#X connect 14 0 1 0;
#X connect 14 0 11 1;
#X connect 14 0 71 1;
#X connect 15 0 17 0;
#X connect 16 0 17 1;
#X connect 17 0 13 0;
#X connect 17 0 33 0;
#X connect 19 0 0 0;
#X connect 20 0 26 0;
#X connect 21 0 25 0;
#X connect 22 0 93 0;
#X connect 22 0 94 0;
#X connect 22 0 95 0;
#X connect 22 1 29 0;
#X connect 22 1 31 0;
#X connect 23 0 22 0;
#X connect 24 0 27 0;
#X connect 24 0 70 0;
#X connect 24 0 74 0;
#X connect 24 0 83 0;
#X connect 29 0 22 0;
#X connect 31 0 14 0;
#X connect 31 0 60 0;
#X connect 32 0 36 0;
#X connect 32 0 44 0;
#X connect 34 0 53 1;
#X connect 35 0 59 0;
#X connect 36 0 23 0;
#X connect 36 0 54 0;
#X connect 37 0 59 1;
#X connect 38 0 41 1;
#X connect 39 0 64 0;
#X connect 39 0 92 0;
#X connect 40 0 41 0;
#X connect 41 0 47 0;
#X connect 42 0 44 0;
#X connect 45 0 91 0;
#X connect 47 0 44 0;
#X connect 47 0 51 0;
#X connect 47 0 51 1;
#X connect 50 0 38 0;
#X connect 52 0 39 0;
#X connect 53 0 40 0;
#X connect 54 0 44 0;
#X connect 55 0 58 1;
#X connect 57 0 58 0;
#X connect 58 0 56 0;
#X connect 59 0 45 0;
#X connect 60 0 2 0;
#X connect 61 0 53 0;
#X connect 62 0 65 1;
#X connect 62 0 83 1;
#X connect 63 0 62 0;
#X connect 64 0 50 0;
#X connect 65 0 66 0;
#X connect 69 0 71 1;
#X connect 70 0 71 0;
#X connect 71 0 69 0;
#X connect 71 0 72 0;
#X connect 72 0 73 0;
#X connect 73 0 75 0;
#X connect 73 0 81 0;
#X connect 74 0 75 1;
#X connect 75 0 76 0;
#X connect 75 0 77 0;
#X connect 77 0 83 1;
#X connect 80 0 81 1;
#X connect 81 0 80 0;
#X connect 81 0 78 0;
#X connect 81 0 79 0;
#X connect 82 0 85 0;
#X connect 83 0 65 0;
#X connect 83 0 82 0;
#X connect 85 0 86 0;
#X connect 86 0 84 0;
#X connect 92 0 50 0;
#X connect 93 0 24 0;
#X connect 93 1 21 0;
#X connect 93 2 20 0;
#X connect 94 0 24 0;
#X connect 94 0 101 0;
#X connect 94 1 21 0;
#X connect 94 1 99 0;
#X connect 94 2 20 0;
#X connect 94 2 100 0;
#X connect 95 0 24 0;
#X connect 95 0 98 0;
#X connect 95 1 21 0;
#X connect 95 1 96 0;
#X connect 95 2 20 0;
#X connect 95 2 97 0;
